<?xml version="1.0" standalone="no"?>
<!DOCTYPE svg PUBLIC "-//W3C//DTD SVG 20010904//EN"
 "http://www.w3.org/TR/2001/REC-SVG-20010904/DTD/svg10.dtd">
<svg version="1.0" xmlns="http://www.w3.org/2000/svg"
 width="16.000000pt" height="16.000000pt" viewBox="0 0 16.000000 16.000000"
 preserveAspectRatio="xMidYMid meet">
<metadata>
Created by potrace 1.11, written by Peter Selinger 2001-2013
</metadata>
<g transform="translate(0.000000,16.000000) scale(0.004061,-0.004061)"
fill="#000000" stroke="none">
<path d="M2395 3029 c-107 -8 -329 -45 -430 -72 l-50 -13 -3 -138 c-2 -129 -1
-138 15 -131 68 26 299 90 403 111 143 30 316 36 415 15 33 -7 101 -32 150
-56 141 -67 257 -198 316 -354 62 -166 88 -375 70 -574 -14 -157 -40 -258 -98
-377 -39 -78 -62 -110 -128 -175 -91 -92 -176 -141 -300 -176 -107 -31 -320
-33 -440 -5 -128 29 -115 -13 -115 371 l0 335 -145 0 -145 0 2 -422 3 -422 70
-18 c748 -194 1262 -54 1492 407 153 306 163 811 23 1148 -43 104 -99 188
-184 275 -157 162 -341 245 -605 271 -114 12 -155 12 -316 0z"/>
<path d="M959 2980 c-240 -22 -406 -115 -476 -266 -77 -168 -64 -440 30 -619
41 -79 164 -201 247 -248 139 -77 321 -117 533 -117 l117 0 0 -415 0 -415 150
0 150 0 0 1045 0 1045 -332 -1 c-183 -1 -372 -5 -419 -9z m451 -622 l0 -411
-123 6 c-152 8 -212 20 -304 62 -132 61 -215 176 -234 327 -23 174 29 306 140
362 97 49 181 63 389 65 l132 1 0 -412z"/>
<path d="M2598 2181 c-85 -28 -132 -87 -132 -167 0 -44 5 -59 30 -91 40 -50
87 -73 151 -73 63 0 99 13 137 48 57 54 69 118 35 189 -35 72 -144 118 -221
94z"/>
<path d="M430 390 c0 -7 525 -10 1555 -10 1030 0 1555 3 1555 10 0 7 -525 10
-1555 10 -1030 0 -1555 -3 -1555 -10z"/>
</g>
</svg>
